<svg width="30" height="30" viewBox="0 0 30 30" fill="none" xmlns="http://www.w3.org/2000/svg">
<mask id="mask0_8_53" style="mask-type:alpha" maskUnits="userSpaceOnUse" x="0" y="0" width="30" height="30">
<rect x="0.48877" y="0.489624" width="28.5624" height="28.5624" fill="#D9D9D9"/>
</mask>
<g mask="url(#mask0_8_53)">
<path d="M7.62937 26.6718V15.7824C6.55828 15.5047 5.69546 14.9394 5.0409 14.0865C4.38635 13.2336 4.05907 12.2716 4.05907 11.2005V2.86983H6.43927V10.0104H7.62937V2.86983H10.0096V10.0104H11.1997V2.86983H13.5799V11.2005C13.5799 12.2716 13.2526 13.2336 12.598 14.0865C11.9435 14.9394 11.0807 15.5047 10.0096 15.7824V26.6718H7.62937ZM19.5304 26.6718V15.3361C18.4593 14.9791 17.5965 14.2303 16.9419 13.0898C16.2874 11.9493 15.9601 10.6551 15.9601 9.20711C15.9601 7.4418 16.4262 5.94425 17.3584 4.71448C18.2907 3.48471 19.4114 2.86983 20.7205 2.86983C22.0296 2.86983 23.1503 3.48967 24.0825 4.72936C25.0148 5.96905 25.4809 7.47155 25.4809 9.23686C25.4809 10.6848 25.1536 11.9741 24.499 13.1047C23.8445 14.2353 22.9817 14.9791 21.9106 15.3361V26.6718H19.5304Z" fill="white"/>
</g>
</svg>
