<svg width="37" height="37" viewBox="0 0 37 37" fill="none" xmlns="http://www.w3.org/2000/svg">
<mask id="mask0_8_173" style="mask-type:alpha" maskUnits="userSpaceOnUse" x="0" y="0" width="37" height="37">
<rect x="0.0296631" y="0.162201" width="36" height="36" fill="#D9D9D9"/>
</mask>
<g mask="url(#mask0_8_173)">
<path d="M15.0297 24.1622L24.0297 18.1622L15.0297 12.1622V24.1622ZM18.0297 33.1622C15.9547 33.1622 14.0047 32.7684 12.1797 31.9809C10.3547 31.1935 8.76716 30.1247 7.41716 28.7747C6.06716 27.4247 4.99841 25.8372 4.21091 24.0122C3.42341 22.1872 3.02966 20.2372 3.02966 18.1622C3.02966 17.0872 3.14216 16.031 3.36716 14.9935C3.59216 13.956 3.91716 12.9497 4.34216 11.9747L6.66716 14.2997C6.46716 14.9497 6.31091 15.5935 6.19841 16.231C6.08591 16.8685 6.02966 17.5122 6.02966 18.1622C6.02966 21.5122 7.19216 24.3497 9.51716 26.6747C11.8422 28.9997 14.6797 30.1622 18.0297 30.1622C21.3797 30.1622 24.2172 28.9997 26.5422 26.6747C28.8672 24.3497 30.0297 21.5122 30.0297 18.1622C30.0297 14.8122 28.8672 11.9747 26.5422 9.6497C24.2172 7.3247 21.3797 6.1622 18.0297 6.1622C17.3547 6.1622 16.6984 6.21845 16.0609 6.33095C15.4234 6.44345 14.7922 6.5997 14.1672 6.7997L11.8797 4.5122C12.8797 4.0622 13.8797 3.7247 14.8797 3.4997C15.8797 3.2747 16.9297 3.1622 18.0297 3.1622C20.1047 3.1622 22.0547 3.55595 23.8797 4.34345C25.7047 5.13095 27.2922 6.1997 28.6422 7.5497C29.9922 8.8997 31.0609 10.4872 31.8484 12.3122C32.6359 14.1372 33.0297 16.0872 33.0297 18.1622C33.0297 20.2372 32.6359 22.1872 31.8484 24.0122C31.0609 25.8372 29.9922 27.4247 28.6422 28.7747C27.2922 30.1247 25.7047 31.1935 23.8797 31.9809C22.0547 32.7684 20.1047 33.1622 18.0297 33.1622ZM8.27966 10.6622C7.65466 10.6622 7.12341 10.4435 6.68591 10.006C6.24841 9.56845 6.02966 9.0372 6.02966 8.4122C6.02966 7.7872 6.24841 7.25595 6.68591 6.81845C7.12341 6.38095 7.65466 6.1622 8.27966 6.1622C8.90466 6.1622 9.43591 6.38095 9.87341 6.81845C10.3109 7.25595 10.5297 7.7872 10.5297 8.4122C10.5297 9.0372 10.3109 9.56845 9.87341 10.006C9.43591 10.4435 8.90466 10.6622 8.27966 10.6622Z" fill="white"/>
</g>
</svg>
