<svg width="29" height="29" viewBox="0 0 29 29" fill="none" xmlns="http://www.w3.org/2000/svg">
<mask id="mask0_8_146" style="mask-type:alpha" maskUnits="userSpaceOnUse" x="0" y="0" width="29" height="29">
<rect x="0.354553" y="0.380859" width="28.5624" height="28.5624" fill="#D9D9D9"/>
</mask>
<g mask="url(#mask0_8_146)">
<path d="M13.4457 23.4986V15.3464L6.30507 11.2108V19.363L13.4457 23.4986ZM15.8259 23.4986L22.9665 19.363V11.2108L15.8259 15.3464V23.4986ZM13.4457 26.2358L5.11497 21.4456C4.7381 21.2275 4.44553 20.9398 4.23727 20.5828C4.029 20.2258 3.92487 19.8291 3.92487 19.3927V9.93142C3.92487 9.49505 4.029 9.09835 4.23727 8.74132C4.44553 8.38429 4.7381 8.09668 5.11497 7.87849L13.4457 3.08834C13.8225 2.87016 14.2192 2.76106 14.6358 2.76106C15.0523 2.76106 15.449 2.87016 15.8259 3.08834L24.1566 7.87849C24.5334 8.09668 24.826 8.38429 25.0343 8.74132C25.2425 9.09835 25.3467 9.49505 25.3467 9.93142V19.3927C25.3467 19.8291 25.2425 20.2258 25.0343 20.5828C24.826 20.9398 24.5334 21.2275 24.1566 21.4456L15.8259 26.2358C15.449 26.454 15.0523 26.5631 14.6358 26.5631C14.2192 26.5631 13.8225 26.454 13.4457 26.2358ZM19.3962 10.5265L21.6871 9.21736L14.6358 5.14126L12.3151 6.48013L19.3962 10.5265ZM14.6358 13.2935L16.9565 11.9546L9.90512 7.87849L7.58442 9.21736L14.6358 13.2935Z" fill="white"/>
</g>
</svg>
