<svg width="26" height="17" viewBox="0 0 26 17" fill="none" xmlns="http://www.w3.org/2000/svg">
<path d="M23.2841 0.911008H16.7499V2.72821H23.3099L23.2841 0.911008ZM21.9051 13.4124C21.4094 13.7408 20.824 13.9074 20.2297 13.8892C19.8362 13.9302 19.4386 13.8896 19.0616 13.7698C18.6846 13.6501 18.3363 13.4538 18.0387 13.1933C17.4884 12.5693 17.2019 11.7561 17.2396 10.925H25.7715C25.833 10.0596 25.7591 9.18995 25.5524 8.34738C25.3525 7.54577 25.0026 6.78925 24.5214 6.11775C24.0369 5.4664 23.4112 4.93324 22.6913 4.55831C21.8902 4.16334 21.0067 3.96455 20.1137 3.97835C19.2738 3.9722 18.4412 4.13434 17.6649 4.4552C16.9542 4.75484 16.3102 5.19295 15.7704 5.744C15.2322 6.30607 14.8154 6.97289 14.5461 7.70298C14.257 8.49114 14.1129 9.32511 14.1207 10.1646C14.1075 11.016 14.2472 11.8628 14.5332 12.6649C14.7761 13.3911 15.1617 14.0615 15.6673 14.6367C16.1904 15.2014 16.8334 15.6418 17.549 15.9255C18.3469 16.2295 19.1955 16.3783 20.0492 16.3637C21.2471 16.4011 22.4297 16.0875 23.4517 15.4615C24.4839 14.7281 25.227 13.6566 25.5524 12.4329H22.7041C22.5517 12.8377 22.2711 13.1817 21.9051 13.4124ZM17.4845 8.1025C17.5848 7.78118 17.7513 7.48444 17.9733 7.23139C18.1953 6.97833 18.4678 6.77459 18.7733 6.63327C19.1779 6.45115 19.6186 6.36302 20.0621 6.37551C20.3825 6.34815 20.7051 6.39042 21.0076 6.49942C21.3102 6.60843 21.5855 6.78159 21.8149 7.00703C22.2528 7.54308 22.5338 8.18987 22.6268 8.87578H17.2783C17.2992 8.61388 17.3467 8.35478 17.4201 8.1025H17.4845ZM10.6668 7.48388C11.3227 7.21074 11.8927 6.76545 12.3164 6.19508C12.7059 5.58935 12.8994 4.87836 12.8706 4.15878C12.8959 3.50257 12.7679 2.8495 12.4969 2.25136C12.2691 1.73315 11.9036 1.28737 11.44 0.962559C10.9486 0.62486 10.3905 0.396343 9.80327 0.292384C9.10838 0.146638 8.3996 0.0774897 7.68964 0.0861766H-0.00448608V16.2993H7.85719C8.57465 16.2998 9.28925 16.2088 9.9837 16.0286C10.642 15.8583 11.2656 15.5749 11.8267 15.1909C12.3702 14.8142 12.8128 14.3096 13.1155 13.7217C13.4505 13.0641 13.6144 12.3328 13.5923 11.5951C13.6167 10.6811 13.3604 9.78144 12.8577 9.01755C12.3172 8.24933 11.5155 7.70416 10.6023 7.48388H10.6668ZM3.56549 2.85709H6.90348C7.21014 2.85672 7.51627 2.88259 7.81852 2.93442C8.09684 2.97567 8.36412 3.07206 8.60469 3.21796C8.83712 3.34943 9.02546 3.54674 9.14598 3.78503C9.29525 4.07078 9.36639 4.39089 9.35219 4.71296C9.37621 4.99036 9.33379 5.26949 9.22845 5.52723C9.12311 5.78497 8.95789 6.01391 8.74646 6.19508C8.28522 6.51217 7.73331 6.6705 7.17412 6.64616H3.56549V2.85709ZM9.80327 12.4458C9.67086 12.7084 9.47063 12.9309 9.22331 13.0902C8.96595 13.2502 8.68236 13.3637 8.38559 13.4252C8.05574 13.4991 7.71831 13.5337 7.38033 13.5283H3.51393V9.08199H7.38033C8.04382 9.05294 8.69905 9.23821 9.24909 9.6104C9.49759 9.8334 9.69008 10.1118 9.81099 10.423C9.93189 10.7342 9.97782 11.0696 9.94504 11.4018C9.97988 11.7561 9.93133 12.1136 9.80327 12.4458Z" fill="black"/>
</svg>
