<svg width="32" height="33" viewBox="0 0 32 33" fill="none" xmlns="http://www.w3.org/2000/svg">
<path fill-rule="evenodd" clip-rule="evenodd" d="M8.72012 7.44702C8.80012 8.63369 9.00012 9.79369 9.32012 10.9004L7.72012 12.5004C7.17345 10.9004 6.82679 9.20702 6.70679 7.44702H8.72012ZM21.8668 23.4737C23.0001 23.7937 24.1601 23.9937 25.3335 24.0737V26.0604C23.5735 25.9404 21.8801 25.5937 20.2668 25.0604L21.8668 23.4737ZM10.0001 4.78027H5.33346C4.60012 4.78027 4.00012 5.38027 4.00012 6.11361C4.00012 18.6336 14.1468 28.7803 26.6668 28.7803C27.4001 28.7803 28.0001 28.1803 28.0001 27.4469V22.7936C28.0001 22.0603 27.4001 21.4603 26.6668 21.4603C25.0135 21.4603 23.4001 21.1936 21.9068 20.7003C21.7735 20.6469 21.6268 20.6336 21.4935 20.6336C21.1468 20.6336 20.8135 20.7669 20.5468 21.0203L17.6135 23.9536C13.8401 22.0203 10.7468 18.9403 8.82679 15.1669L11.7601 12.2336C12.1335 11.8603 12.2401 11.3403 12.0935 10.8736C11.6001 9.38027 11.3335 7.78027 11.3335 6.11361C11.3335 5.38027 10.7335 4.78027 10.0001 4.78027Z" fill="white"/>
</svg>
