<svg width="21" height="21" viewBox="0 0 21 21" fill="none" xmlns="http://www.w3.org/2000/svg">
<path d="M10.8634 0.226074C8.88559 0.226074 6.95219 0.812564 5.3077 1.91138C3.66321 3.01019 2.38149 4.57198 1.62461 6.39924C0.867736 8.2265 0.669703 10.2372 1.05555 12.177C1.44141 14.1168 2.39381 15.8986 3.79234 17.2971C5.19086 18.6957 6.97269 19.6481 8.9125 20.0339C10.8523 20.4198 12.863 20.2217 14.6902 19.4649C16.5175 18.708 18.0793 17.4263 19.1781 15.7818C20.2769 14.1373 20.8634 12.2039 20.8634 10.2261C20.8634 8.91285 20.6047 7.61249 20.1022 6.39924C19.5996 5.18598 18.8631 4.08359 17.9345 3.155C17.0059 2.22642 15.9035 1.48983 14.6902 0.987278C13.477 0.484732 12.1766 0.226074 10.8634 0.226074ZM10.8634 2.22607C12.9181 2.22525 14.8932 3.021 16.3734 4.44607C14.8454 5.34227 13.2263 6.07307 11.5434 6.62607C10.7059 5.1829 9.74568 3.81451 8.6734 2.53607C9.38536 2.33107 10.1225 2.22672 10.8634 2.22607ZM6.7534 3.37607C7.80109 4.57458 8.74137 5.86287 9.5634 7.22607C7.6005 7.71347 5.58591 7.96194 3.56341 7.96607H3.20341C3.77061 6.04571 5.03734 4.40788 6.7534 3.37607ZM4.86341 15.5361C3.56216 14.0748 2.84949 12.1827 2.86341 10.2261C2.86341 10.1261 2.86341 10.0261 2.86341 9.93607H3.54341C5.91078 9.9149 8.2648 9.57862 10.5434 8.93607C10.8634 9.54607 11.1634 10.1761 11.4534 10.8261C9.89489 11.3755 8.44341 12.1909 7.1634 13.2361L6.8634 13.4761C6.15052 14.1163 5.48229 14.8046 4.86341 15.5361ZM10.8634 18.2261C9.26949 18.2296 7.7116 17.7521 6.3934 16.8561C6.88024 16.2977 7.40124 15.77 7.9534 15.2761L8.2734 15.0061C9.45657 14.011 10.8124 13.2415 12.2734 12.7361C12.8747 14.3621 13.3429 16.0342 13.6734 17.7361C12.7732 18.0647 11.8217 18.2307 10.8634 18.2261ZM15.4934 16.7361C15.1662 15.2226 14.7386 13.7327 14.2134 12.2761H14.5534C14.5928 12.2663 14.634 12.2663 14.6734 12.2761H14.7834H14.8834H15.3634C16.4158 12.2791 17.4602 12.4582 18.4534 12.8061C17.9077 14.3964 16.8713 15.7725 15.4934 16.7361ZM15.3634 10.2261C15.1534 10.2261 14.9434 10.2261 14.7434 10.2261C14.6139 10.2098 14.4829 10.2098 14.3534 10.2261C14.0816 10.2428 13.8111 10.2762 13.5434 10.3261H13.4434C13.1534 9.65607 12.8534 9.00607 12.5234 8.32607C14.314 7.71113 16.0338 6.90656 17.6534 5.92607C18.4568 7.21544 18.8765 8.70692 18.8634 10.2261C18.8634 10.3961 18.8634 10.5661 18.8634 10.7361C17.7301 10.3863 16.5494 10.2142 15.3634 10.2261Z" fill="black"/>
</svg>
