<svg width="21" height="21" viewBox="0 0 21 21" fill="none" xmlns="http://www.w3.org/2000/svg">
<path d="M15.7258 3.68607C15.4885 3.68607 15.2565 3.75645 15.0591 3.88831C14.8618 4.02017 14.708 4.20758 14.6171 4.42685C14.5263 4.64613 14.5026 4.88741 14.5489 5.12018C14.5952 5.35296 14.7095 5.56678 14.8773 5.7346C15.0451 5.90243 15.2589 6.01671 15.4917 6.06302C15.7245 6.10932 15.9658 6.08555 16.185 5.99473C16.4043 5.9039 16.5917 5.7501 16.7236 5.55276C16.8554 5.35542 16.9258 5.12341 16.9258 4.88607C16.9258 4.56781 16.7994 4.26259 16.5743 4.03755C16.3493 3.8125 16.0441 3.68607 15.7258 3.68607ZM20.3258 6.10607C20.3064 5.27637 20.151 4.45548 19.8658 3.67607C19.6115 3.00921 19.2158 2.40535 18.7058 1.90607C18.2106 1.3935 17.6054 1.00025 16.9358 0.756074C16.1585 0.462235 15.3367 0.303284 14.5058 0.286074C13.4458 0.226074 13.1058 0.226074 10.3858 0.226074C7.6658 0.226074 7.3258 0.226074 6.2658 0.286074C5.43496 0.303284 4.61315 0.462235 3.8358 0.756074C3.16748 1.00272 2.56274 1.39563 2.0658 1.90607C1.55323 2.40125 1.15998 3.00651 0.915803 3.67607C0.621964 4.45342 0.463013 5.27523 0.445803 6.10607C0.385803 7.16607 0.385803 7.50607 0.385803 10.2261C0.385803 12.9461 0.385803 13.2861 0.445803 14.3461C0.463013 15.1769 0.621964 15.9987 0.915803 16.7761C1.15998 17.4456 1.55323 18.0509 2.0658 18.5461C2.56274 19.0565 3.16748 19.4494 3.8358 19.6961C4.61315 19.9899 5.43496 20.1489 6.2658 20.1661C7.3258 20.2261 7.6658 20.2261 10.3858 20.2261C13.1058 20.2261 13.4458 20.2261 14.5058 20.1661C15.3367 20.1489 16.1585 19.9899 16.9358 19.6961C17.6054 19.4519 18.2106 19.0586 18.7058 18.5461C19.218 18.0487 19.6141 17.4443 19.8658 16.7761C20.151 15.9967 20.3064 15.1758 20.3258 14.3461C20.3258 13.2861 20.3858 12.9461 20.3858 10.2261C20.3858 7.50607 20.3858 7.16607 20.3258 6.10607ZM18.5258 14.2261C18.5185 14.8608 18.4036 15.4898 18.1858 16.0861C18.0261 16.5213 17.7697 16.9145 17.4358 17.2361C17.1115 17.5666 16.719 17.8225 16.2858 17.9861C15.6895 18.2038 15.0606 18.3188 14.4258 18.3261C13.4258 18.3761 13.0558 18.3861 10.4258 18.3861C7.7958 18.3861 7.4258 18.3861 6.4258 18.3261C5.76669 18.3384 5.1104 18.2369 4.4858 18.0261C4.07158 17.8542 3.69716 17.5989 3.3858 17.2761C3.05389 16.9548 2.80065 16.5613 2.6458 16.1261C2.40166 15.5212 2.26625 14.878 2.2458 14.2261C2.2458 13.2261 2.1858 12.8561 2.1858 10.2261C2.1858 7.59607 2.1858 7.22607 2.2458 6.22607C2.25029 5.57713 2.36875 4.93402 2.5958 4.32607C2.77185 3.90399 3.04207 3.52773 3.3858 3.22607C3.68962 2.88224 4.06509 2.60917 4.4858 2.42607C5.09535 2.20612 5.7378 2.09115 6.3858 2.08607C7.3858 2.08607 7.7558 2.02607 10.3858 2.02607C13.0158 2.02607 13.3858 2.02607 14.3858 2.08607C15.0206 2.09335 15.6495 2.20832 16.2458 2.42607C16.7002 2.59473 17.1081 2.86892 17.4358 3.22607C17.7635 3.53325 18.0196 3.90881 18.1858 4.32607C18.4081 4.93501 18.5231 5.57785 18.5258 6.22607C18.5758 7.22607 18.5858 7.59607 18.5858 10.2261C18.5858 12.8561 18.5758 13.2261 18.5258 14.2261ZM10.3858 5.09607C9.37161 5.09805 8.38077 5.4006 7.53846 5.96549C6.69615 6.53038 6.04018 7.33227 5.65344 8.26983C5.26669 9.20739 5.16653 10.2385 5.3656 11.233C5.56467 12.2275 6.05404 13.1406 6.77188 13.8571C7.48972 14.5735 8.40381 15.0611 9.39866 15.2582C10.3935 15.4554 11.4245 15.3532 12.3613 14.9646C13.2981 14.576 14.0987 13.9185 14.6619 13.0751C15.2252 12.2317 15.5258 11.2403 15.5258 10.2261C15.5271 9.55118 15.395 8.88268 15.137 8.25903C14.8791 7.63538 14.5004 7.06888 14.0227 6.59212C13.545 6.11537 12.9778 5.73775 12.3536 5.481C11.7294 5.22425 11.0607 5.09344 10.3858 5.09607ZM10.3858 13.5561C9.72719 13.5561 9.08337 13.3608 8.53575 12.9949C7.98814 12.629 7.56132 12.1089 7.30928 11.5004C7.05724 10.8919 6.9913 10.2224 7.11979 9.57642C7.24828 8.93047 7.56543 8.33712 8.03114 7.87141C8.49685 7.4057 9.0902 7.08855 9.73615 6.96006C10.3821 6.83157 11.0517 6.89752 11.6601 7.14956C12.2686 7.4016 12.7887 7.82841 13.1546 8.37603C13.5205 8.92364 13.7158 9.56746 13.7158 10.2261C13.7158 10.6634 13.6297 11.0964 13.4623 11.5004C13.295 11.9044 13.0497 12.2715 12.7405 12.5807C12.4312 12.89 12.0642 13.1352 11.6601 13.3026C11.2561 13.4699 10.8231 13.5561 10.3858 13.5561Z" fill="black"/>
</svg>
