<svg width="33" height="33" viewBox="0 0 33 33" fill="none" xmlns="http://www.w3.org/2000/svg">
<path fill-rule="evenodd" clip-rule="evenodd" d="M16.667 3.44727C21.827 3.44727 26.0004 7.6206 26.0004 12.7806C26.0004 19.7806 16.667 30.1139 16.667 30.1139C16.667 30.1139 7.3337 19.7806 7.3337 12.7806C7.3337 7.6206 11.507 3.44727 16.667 3.44727ZM10.0004 12.7806C10.0004 16.5806 13.8937 22.3939 16.667 25.9539C19.4937 22.3673 23.3337 16.6206 23.3337 12.7806C23.3337 9.1006 20.347 6.11393 16.667 6.11393C12.987 6.11393 10.0004 9.1006 10.0004 12.7806ZM16.667 16.1139C14.8261 16.1139 13.3337 14.6215 13.3337 12.7806C13.3337 10.9396 14.8261 9.44727 16.667 9.44727C18.508 9.44727 20.0004 10.9396 20.0004 12.7806C20.0004 14.6215 18.508 16.1139 16.667 16.1139Z" fill="white"/>
</svg>
