<svg width="26" height="21" viewBox="0 0 26 21" fill="none" xmlns="http://www.w3.org/2000/svg">
<path d="M25.1475 2.6222C24.2241 3.02278 23.2477 3.28759 22.2484 3.40838C23.3026 2.77861 24.0926 1.78785 24.4719 0.619902C23.4812 1.20961 22.3968 1.6251 21.2657 1.84831C20.5097 1.02844 19.5029 0.482684 18.4033 0.296648C17.3037 0.110612 16.1734 0.294814 15.1898 0.820365C14.2061 1.34591 13.4247 2.18309 12.9681 3.20058C12.5115 4.21808 12.4056 5.35834 12.6669 6.44255C10.6639 6.34124 8.70457 5.81969 6.91627 4.91178C5.12797 4.00388 3.55067 2.72993 2.28683 1.17268C1.84354 1.94679 1.61062 2.82344 1.61121 3.71549C1.60964 4.5439 1.81293 5.35985 2.203 6.09069C2.59306 6.82153 3.15779 7.44457 3.84691 7.90435C3.04596 7.88256 2.26212 7.66764 1.56207 7.27786V7.33929C1.56807 8.5 1.97481 9.62301 2.71347 10.5184C3.45214 11.4137 4.47739 12.0264 5.61581 12.2529C5.17759 12.3863 4.72261 12.4566 4.26457 12.4617C3.9475 12.458 3.63123 12.4293 3.31869 12.3758C3.64288 13.3742 4.27024 14.2468 5.11349 14.8721C5.95673 15.4973 6.97391 15.8442 8.02349 15.8644C6.25115 17.259 4.06296 18.0201 1.80775 18.0264C1.39714 18.0278 0.986852 18.0032 0.579346 17.9527C2.88191 19.4394 5.56522 20.2286 8.30602 20.2253C10.1974 20.2449 12.0737 19.8875 13.8254 19.1739C15.5771 18.4602 17.169 17.4047 18.5082 16.069C19.8474 14.7332 20.907 13.144 21.6251 11.3941C22.3432 9.64429 22.7055 7.76889 22.6907 5.87748C22.6907 5.66865 22.6907 5.44754 22.6907 5.22643C23.6546 4.50758 24.4859 3.62633 25.1475 2.6222Z" fill="black"/>
</svg>
