<svg width="30" height="30" viewBox="0 0 30 30" fill="none" xmlns="http://www.w3.org/2000/svg">
<mask id="mask0_20_324" style="mask-type:alpha" maskUnits="userSpaceOnUse" x="0" y="0" width="30" height="31">
<rect x="0.146057" y="0.458496" width="29.5424" height="29.5424" fill="#D9D9D9"/>
</mask>
<g mask="url(#mask0_20_324)">
<path d="M2.60791 27.5391V5.38228C2.60791 4.70526 2.84897 4.1257 3.33108 3.64358C3.8132 3.16147 4.39276 2.92041 5.06978 2.92041H24.7647C25.4417 2.92041 26.0213 3.16147 26.5034 3.64358C26.9855 4.1257 27.2266 4.70526 27.2266 5.38228V20.1535C27.2266 20.8305 26.9855 21.4101 26.5034 21.8922C26.0213 22.3743 25.4417 22.6154 24.7647 22.6154H7.53165L2.60791 27.5391ZM6.48535 20.1535H24.7647V5.38228H5.06978V21.5383L6.48535 20.1535Z" fill="white"/>
</g>
</svg>
