<svg width="23" height="24" viewBox="0 0 23 24" fill="none" xmlns="http://www.w3.org/2000/svg">
<mask id="mask0_8_183" style="mask-type:alpha" maskUnits="userSpaceOnUse" x="0" y="0" width="23" height="24">
<rect x="0.102188" y="0.548309" width="22.8801" height="22.8801" fill="#D9D9D9"/>
</mask>
<g mask="url(#mask0_8_183)">
<path d="M5.82223 21.5218C5.29789 21.5218 4.84903 21.3351 4.47564 20.9617C4.10225 20.5883 3.91555 20.1394 3.91555 19.6151V8.17504C3.91555 7.65071 4.10225 7.20184 4.47564 6.82845C4.84903 6.45506 5.29789 6.26836 5.82223 6.26836H7.72891C7.72891 5.21969 8.1023 4.32196 8.84908 3.57518C9.59586 2.8284 10.4936 2.45501 11.5423 2.45501C12.5909 2.45501 13.4887 2.8284 14.2354 3.57518C14.9822 4.32196 15.3556 5.21969 15.3556 6.26836H17.2623C17.7866 6.26836 18.2355 6.45506 18.6089 6.82845C18.9823 7.20184 19.169 7.65071 19.169 8.17504V19.6151C19.169 20.1394 18.9823 20.5883 18.6089 20.9617C18.2355 21.3351 17.7866 21.5218 17.2623 21.5218H5.82223ZM5.82223 19.6151H17.2623V8.17504H15.3556V10.0817C15.3556 10.3518 15.2643 10.5783 15.0815 10.761C14.8988 10.9437 14.6724 11.0351 14.4023 11.0351C14.1322 11.0351 13.9057 10.9437 13.723 10.761C13.5403 10.5783 13.4489 10.3518 13.4489 10.0817V8.17504H9.63558V10.0817C9.63558 10.3518 9.54422 10.5783 9.3615 10.761C9.17877 10.9437 8.95236 11.0351 8.68224 11.0351C8.41213 11.0351 8.18571 10.9437 8.00299 10.761C7.82027 10.5783 7.72891 10.3518 7.72891 10.0817V8.17504H5.82223V19.6151ZM9.63558 6.26836H13.4489C13.4489 5.74403 13.2622 5.29516 12.8889 4.92177C12.5155 4.54838 12.0666 4.36169 11.5423 4.36169C11.0179 4.36169 10.5691 4.54838 10.1957 4.92177C9.82228 5.29516 9.63558 5.74403 9.63558 6.26836Z" fill="white"/>
</g>
</svg>
