<svg width="38" height="38" viewBox="0 0 38 38" fill="none" xmlns="http://www.w3.org/2000/svg">
<mask id="mask0_8_88" style="mask-type:alpha" maskUnits="userSpaceOnUse" x="0" y="0" width="38" height="38">
<rect x="0.720093" y="0.420807" width="37.0787" height="37.0787" fill="#D9D9D9"/>
</mask>
<g mask="url(#mask0_8_88)">
<path d="M9.75817 26.8394C11.0714 25.8352 12.5391 25.0434 14.1613 24.4641C15.7835 23.8847 17.4829 23.595 19.2596 23.595C21.0363 23.595 22.7357 23.8847 24.3579 24.4641C25.9801 25.0434 27.4478 25.8352 28.761 26.8394C29.6622 25.7837 30.3639 24.5864 30.866 23.2474C31.3681 21.9085 31.6192 20.4794 31.6192 18.9602C31.6192 15.5356 30.4154 12.6195 28.0079 10.2119C25.6003 7.80438 22.6842 6.60061 19.2596 6.60061C15.835 6.60061 12.9189 7.80438 10.5113 10.2119C8.10379 12.6195 6.90001 15.5356 6.90001 18.9602C6.90001 20.4794 7.15107 21.9085 7.65318 23.2474C8.15528 24.5864 8.85695 25.7837 9.75817 26.8394ZM19.2596 20.5051C17.7404 20.5051 16.4594 19.9837 15.4165 18.9409C14.3737 17.898 13.8523 16.617 13.8523 15.0978C13.8523 13.5786 14.3737 12.2976 15.4165 11.2548C16.4594 10.2119 17.7404 9.6905 19.2596 9.6905C20.7788 9.6905 22.0598 10.2119 23.1026 11.2548C24.1455 12.2976 24.6669 13.5786 24.6669 15.0978C24.6669 16.617 24.1455 17.898 23.1026 18.9409C22.0598 19.9837 20.7788 20.5051 19.2596 20.5051ZM19.2596 34.4097C17.1224 34.4097 15.114 34.0041 13.2343 33.193C11.3546 32.3819 9.71954 31.2811 8.32909 29.8907C6.93864 28.5002 5.83786 26.8652 5.02677 24.9855C4.21567 23.1058 3.81012 21.0974 3.81012 18.9602C3.81012 16.823 4.21567 14.8146 5.02677 12.9349C5.83786 11.0552 6.93864 9.42014 8.32909 8.02968C9.71954 6.63923 11.3546 5.53846 13.2343 4.72736C15.114 3.91626 17.1224 3.51071 19.2596 3.51071C21.3968 3.51071 23.4052 3.91626 25.2849 4.72736C27.1646 5.53846 28.7996 6.63923 30.1901 8.02968C31.5805 9.42014 32.6813 11.0552 33.4924 12.9349C34.3035 14.8146 34.7091 16.823 34.7091 18.9602C34.7091 21.0974 34.3035 23.1058 33.4924 24.9855C32.6813 26.8652 31.5805 28.5002 30.1901 29.8907C28.7996 31.2811 27.1646 32.3819 25.2849 33.193C23.4052 34.0041 21.3968 34.4097 19.2596 34.4097ZM19.2596 31.3198C20.6243 31.3198 21.9118 31.1202 23.122 30.7211C24.3322 30.322 25.4394 29.7491 26.4436 29.0023C25.4394 28.2556 24.3322 27.6827 23.122 27.2836C21.9118 26.8845 20.6243 26.6849 19.2596 26.6849C17.8949 26.6849 16.6074 26.8845 15.3972 27.2836C14.187 27.6827 13.0798 28.2556 12.0756 29.0023C13.0798 29.7491 14.187 30.322 15.3972 30.7211C16.6074 31.1202 17.8949 31.3198 19.2596 31.3198ZM19.2596 17.4152C19.9291 17.4152 20.4827 17.1964 20.9204 16.7586C21.3581 16.3209 21.577 15.7673 21.577 15.0978C21.577 14.4283 21.3581 13.8747 20.9204 13.437C20.4827 12.9993 19.9291 12.7804 19.2596 12.7804C18.5901 12.7804 18.0365 12.9993 17.5988 13.437C17.161 13.8747 16.9422 14.4283 16.9422 15.0978C16.9422 15.7673 17.161 16.3209 17.5988 16.7586C18.0365 17.1964 18.5901 17.4152 19.2596 17.4152Z" fill="white"/>
</g>
</svg>
