<svg width="38" height="38" viewBox="0 0 38 38" fill="none" xmlns="http://www.w3.org/2000/svg">
<mask id="mask0_8_121" style="mask-type:alpha" maskUnits="userSpaceOnUse" x="0" y="0" width="38" height="38">
<rect x="0.641235" y="0.420807" width="37.0787" height="37.0787" fill="#D9D9D9"/>
</mask>
<g mask="url(#mask0_8_121)">
<path d="M33.7031 22.4363L22.6567 33.4827C22.3478 33.7917 22.0001 34.0234 21.6139 34.1779C21.2277 34.3324 20.8414 34.4097 20.4552 34.4097C20.069 34.4097 19.6827 34.3324 19.2965 34.1779C18.9102 34.0234 18.5626 33.7917 18.2536 33.4827L4.61948 19.8485C4.33624 19.5653 4.11738 19.237 3.96288 18.8636C3.80839 18.4903 3.73114 18.0976 3.73114 17.6856V6.60061C3.73114 5.75089 4.03369 5.02347 4.6388 4.41837C5.2439 3.81326 5.97131 3.51071 6.82104 3.51071H17.906C18.318 3.51071 18.7171 3.5944 19.1034 3.76177C19.4896 3.92913 19.8243 4.15444 20.1076 4.43768L33.7031 18.0718C34.0121 18.3808 34.2374 18.7284 34.379 19.1147C34.5207 19.5009 34.5915 19.8872 34.5915 20.2734C34.5915 20.6596 34.5207 21.0394 34.379 21.4128C34.2374 21.7862 34.0121 22.1273 33.7031 22.4363ZM20.4552 31.3198L31.5016 20.2734L17.8674 6.60061H6.82104V17.647L20.4552 31.3198ZM10.6834 12.7804C11.3271 12.7804 11.8743 12.5551 12.3249 12.1045C12.7755 11.6539 13.0008 11.1067 13.0008 10.463C13.0008 9.81925 12.7755 9.27208 12.3249 8.82147C11.8743 8.37086 11.3271 8.14555 10.6834 8.14555C10.0397 8.14555 9.49251 8.37086 9.0419 8.82147C8.59129 9.27208 8.36598 9.81925 8.36598 10.463C8.36598 11.1067 8.59129 11.6539 9.0419 12.1045C9.49251 12.5551 10.0397 12.7804 10.6834 12.7804Z" fill="white"/>
</g>
</svg>
