<svg width="38" height="38" viewBox="0 0 38 38" fill="none" xmlns="http://www.w3.org/2000/svg">
<mask id="mask0_8_115" style="mask-type:alpha" maskUnits="userSpaceOnUse" x="0" y="0" width="38" height="38">
<rect x="0.562622" y="0.420807" width="37.0787" height="37.0787" fill="#D9D9D9"/>
</mask>
<g mask="url(#mask0_8_115)">
<path d="M11.3772 34.4097C10.5275 34.4097 9.8001 34.1071 9.19499 33.502C8.58989 32.8969 8.28733 32.1695 8.28733 31.3198C8.28733 30.47 8.58989 29.7426 9.19499 29.1375C9.8001 28.5324 10.5275 28.2299 11.3772 28.2299C12.2269 28.2299 12.9544 28.5324 13.5595 29.1375C14.1646 29.7426 14.4671 30.47 14.4671 31.3198C14.4671 32.1695 14.1646 32.8969 13.5595 33.502C12.9544 34.1071 12.2269 34.4097 11.3772 34.4097ZM26.8267 34.4097C25.977 34.4097 25.2496 34.1071 24.6445 33.502C24.0394 32.8969 23.7368 32.1695 23.7368 31.3198C23.7368 30.47 24.0394 29.7426 24.6445 29.1375C25.2496 28.5324 25.977 28.2299 26.8267 28.2299C27.6764 28.2299 28.4038 28.5324 29.0089 29.1375C29.614 29.7426 29.9166 30.47 29.9166 31.3198C29.9166 32.1695 29.614 32.8969 29.0089 33.502C28.4038 34.1071 27.6764 34.4097 26.8267 34.4097ZM10.064 9.6905L13.7719 17.4152H24.5865L28.8351 9.6905H10.064ZM8.59632 6.60061H31.3843C31.9765 6.60061 32.4271 6.86454 32.7361 7.39239C33.0451 7.92025 33.058 8.45454 32.7748 8.99528L27.2902 18.8829C27.007 19.3979 26.6271 19.797 26.1508 20.0803C25.6744 20.3635 25.153 20.5051 24.5865 20.5051H13.0767L11.3772 23.595H29.9166V26.6849H11.3772C10.2185 26.6849 9.34305 26.1764 8.75082 25.1593C8.15859 24.1422 8.13284 23.1315 8.67357 22.1273L10.7592 18.3422L5.19744 6.60061H2.10754V3.51071H7.12862L8.59632 6.60061Z" fill="white"/>
</g>
</svg>
